<mxfile host="app.diagrams.net" modified="2021-03-02T13:04:47.208Z" agent="5.0 (Macintosh; Intel Mac OS X 11_1_0) AppleWebKit/537.36 (KHTML, like Gecko) Chrome/88.0.4324.150 Safari/537.36" etag="nlaD2ET1yVk9NFtUYp2z" version="14.4.3" type="github">
  <diagram id="09QouWB-hyUzTraOUoCt" name="ページ1">
    <mxGraphModel dx="849" dy="589" grid="1" gridSize="10" guides="1" tooltips="1" connect="1" arrows="1" fold="1" page="1" pageScale="1" pageWidth="827" pageHeight="1169" math="0" shadow="0">
      <root>
        <mxCell id="0" />
        <mxCell id="1" parent="0" />
        <mxCell id="QCr_n_F1MeNNPdFUI7uE-1" value="会員" style="shape=table;html=1;whiteSpace=wrap;startSize=30;container=1;collapsible=0;childLayout=tableLayout;fixedRows=1;rowLines=0;fontStyle=1;align=center;" vertex="1" parent="1">
          <mxGeometry x="60" y="80" width="180" height="280" as="geometry" />
        </mxCell>
        <mxCell id="QCr_n_F1MeNNPdFUI7uE-2" value="" style="shape=partialRectangle;html=1;whiteSpace=wrap;collapsible=0;dropTarget=0;pointerEvents=0;fillColor=none;top=0;left=0;bottom=1;right=0;points=[[0,0.5],[1,0.5]];portConstraint=eastwest;" vertex="1" parent="QCr_n_F1MeNNPdFUI7uE-1">
          <mxGeometry y="30" width="180" height="30" as="geometry" />
        </mxCell>
        <mxCell id="QCr_n_F1MeNNPdFUI7uE-3" value="PK" style="shape=partialRectangle;html=1;whiteSpace=wrap;connectable=0;fillColor=none;top=0;left=0;bottom=0;right=0;overflow=hidden;" vertex="1" parent="QCr_n_F1MeNNPdFUI7uE-2">
          <mxGeometry width="40" height="30" as="geometry" />
        </mxCell>
        <mxCell id="QCr_n_F1MeNNPdFUI7uE-4" value="Id" style="shape=partialRectangle;html=1;whiteSpace=wrap;connectable=0;fillColor=none;top=0;left=0;bottom=0;right=0;align=left;spacingLeft=6;overflow=hidden;" vertex="1" parent="QCr_n_F1MeNNPdFUI7uE-2">
          <mxGeometry x="40" width="140" height="30" as="geometry" />
        </mxCell>
        <mxCell id="QCr_n_F1MeNNPdFUI7uE-5" value="" style="shape=partialRectangle;html=1;whiteSpace=wrap;collapsible=0;dropTarget=0;pointerEvents=0;fillColor=none;top=0;left=0;bottom=0;right=0;points=[[0,0.5],[1,0.5]];portConstraint=eastwest;" vertex="1" parent="QCr_n_F1MeNNPdFUI7uE-1">
          <mxGeometry y="60" width="180" height="30" as="geometry" />
        </mxCell>
        <mxCell id="QCr_n_F1MeNNPdFUI7uE-6" value="" style="shape=partialRectangle;html=1;whiteSpace=wrap;connectable=0;fillColor=none;top=0;left=0;bottom=0;right=0;overflow=hidden;" vertex="1" parent="QCr_n_F1MeNNPdFUI7uE-5">
          <mxGeometry width="40" height="30" as="geometry" />
        </mxCell>
        <mxCell id="QCr_n_F1MeNNPdFUI7uE-7" value="会員名(customer_name)" style="shape=partialRectangle;html=1;whiteSpace=wrap;connectable=0;fillColor=none;top=0;left=0;bottom=0;right=0;align=left;spacingLeft=6;overflow=hidden;" vertex="1" parent="QCr_n_F1MeNNPdFUI7uE-5">
          <mxGeometry x="40" width="140" height="30" as="geometry" />
        </mxCell>
        <mxCell id="QCr_n_F1MeNNPdFUI7uE-8" value="" style="shape=partialRectangle;html=1;whiteSpace=wrap;collapsible=0;dropTarget=0;pointerEvents=0;fillColor=none;top=0;left=0;bottom=0;right=0;points=[[0,0.5],[1,0.5]];portConstraint=eastwest;" vertex="1" parent="QCr_n_F1MeNNPdFUI7uE-1">
          <mxGeometry y="90" width="180" height="30" as="geometry" />
        </mxCell>
        <mxCell id="QCr_n_F1MeNNPdFUI7uE-9" value="" style="shape=partialRectangle;html=1;whiteSpace=wrap;connectable=0;fillColor=none;top=0;left=0;bottom=0;right=0;overflow=hidden;" vertex="1" parent="QCr_n_F1MeNNPdFUI7uE-8">
          <mxGeometry width="40" height="30" as="geometry" />
        </mxCell>
        <mxCell id="QCr_n_F1MeNNPdFUI7uE-10" value="プロフィール(profile)" style="shape=partialRectangle;html=1;whiteSpace=wrap;connectable=0;fillColor=none;top=0;left=0;bottom=0;right=0;align=left;spacingLeft=6;overflow=hidden;" vertex="1" parent="QCr_n_F1MeNNPdFUI7uE-8">
          <mxGeometry x="40" width="140" height="30" as="geometry" />
        </mxCell>
        <mxCell id="QCr_n_F1MeNNPdFUI7uE-11" value="" style="shape=partialRectangle;html=1;whiteSpace=wrap;collapsible=0;dropTarget=0;pointerEvents=0;fillColor=none;top=0;left=0;bottom=0;right=0;points=[[0,0.5],[1,0.5]];portConstraint=eastwest;" vertex="1" parent="QCr_n_F1MeNNPdFUI7uE-1">
          <mxGeometry y="120" width="180" height="30" as="geometry" />
        </mxCell>
        <mxCell id="QCr_n_F1MeNNPdFUI7uE-12" value="" style="shape=partialRectangle;html=1;whiteSpace=wrap;connectable=0;fillColor=none;top=0;left=0;bottom=0;right=0;overflow=hidden;" vertex="1" parent="QCr_n_F1MeNNPdFUI7uE-11">
          <mxGeometry width="40" height="30" as="geometry" />
        </mxCell>
        <mxCell id="QCr_n_F1MeNNPdFUI7uE-13" value="プロフィール画像(profile_image_id)" style="shape=partialRectangle;html=1;whiteSpace=wrap;connectable=0;fillColor=none;top=0;left=0;bottom=0;right=0;align=left;spacingLeft=6;overflow=hidden;" vertex="1" parent="QCr_n_F1MeNNPdFUI7uE-11">
          <mxGeometry x="40" width="140" height="30" as="geometry" />
        </mxCell>
        <mxCell id="QCr_n_F1MeNNPdFUI7uE-14" value="" style="shape=partialRectangle;html=1;whiteSpace=wrap;collapsible=0;dropTarget=0;pointerEvents=0;fillColor=none;top=0;left=0;bottom=0;right=0;points=[[0,0.5],[1,0.5]];portConstraint=eastwest;" vertex="1" parent="QCr_n_F1MeNNPdFUI7uE-1">
          <mxGeometry y="150" width="180" height="30" as="geometry" />
        </mxCell>
        <mxCell id="QCr_n_F1MeNNPdFUI7uE-15" value="" style="shape=partialRectangle;html=1;whiteSpace=wrap;connectable=0;fillColor=none;top=0;left=0;bottom=0;right=0;overflow=hidden;" vertex="1" parent="QCr_n_F1MeNNPdFUI7uE-14">
          <mxGeometry width="40" height="30" as="geometry" />
        </mxCell>
        <mxCell id="QCr_n_F1MeNNPdFUI7uE-16" value="メールアドレス(email)" style="shape=partialRectangle;html=1;whiteSpace=wrap;connectable=0;fillColor=none;top=0;left=0;bottom=0;right=0;align=left;spacingLeft=6;overflow=hidden;" vertex="1" parent="QCr_n_F1MeNNPdFUI7uE-14">
          <mxGeometry x="40" width="140" height="30" as="geometry" />
        </mxCell>
        <mxCell id="QCr_n_F1MeNNPdFUI7uE-17" value="" style="shape=partialRectangle;html=1;whiteSpace=wrap;collapsible=0;dropTarget=0;pointerEvents=0;fillColor=none;top=0;left=0;bottom=0;right=0;points=[[0,0.5],[1,0.5]];portConstraint=eastwest;" vertex="1" parent="QCr_n_F1MeNNPdFUI7uE-1">
          <mxGeometry y="180" width="180" height="30" as="geometry" />
        </mxCell>
        <mxCell id="QCr_n_F1MeNNPdFUI7uE-18" value="" style="shape=partialRectangle;html=1;whiteSpace=wrap;connectable=0;fillColor=none;top=0;left=0;bottom=0;right=0;overflow=hidden;" vertex="1" parent="QCr_n_F1MeNNPdFUI7uE-17">
          <mxGeometry width="40" height="30" as="geometry" />
        </mxCell>
        <mxCell id="QCr_n_F1MeNNPdFUI7uE-19" value="パスワード(password)" style="shape=partialRectangle;html=1;whiteSpace=wrap;connectable=0;fillColor=none;top=0;left=0;bottom=0;right=0;align=left;spacingLeft=6;overflow=hidden;" vertex="1" parent="QCr_n_F1MeNNPdFUI7uE-17">
          <mxGeometry x="40" width="140" height="30" as="geometry" />
        </mxCell>
        <mxCell id="QCr_n_F1MeNNPdFUI7uE-20" value="" style="shape=partialRectangle;html=1;whiteSpace=wrap;collapsible=0;dropTarget=0;pointerEvents=0;fillColor=none;top=0;left=0;bottom=0;right=0;points=[[0,0.5],[1,0.5]];portConstraint=eastwest;" vertex="1" parent="QCr_n_F1MeNNPdFUI7uE-1">
          <mxGeometry y="210" width="180" height="30" as="geometry" />
        </mxCell>
        <mxCell id="QCr_n_F1MeNNPdFUI7uE-21" value="" style="shape=partialRectangle;html=1;whiteSpace=wrap;connectable=0;fillColor=none;top=0;left=0;bottom=0;right=0;overflow=hidden;" vertex="1" parent="QCr_n_F1MeNNPdFUI7uE-20">
          <mxGeometry width="40" height="30" as="geometry" />
        </mxCell>
        <mxCell id="QCr_n_F1MeNNPdFUI7uE-22" value="作成日(created_at)" style="shape=partialRectangle;html=1;whiteSpace=wrap;connectable=0;fillColor=none;top=0;left=0;bottom=0;right=0;align=left;spacingLeft=6;overflow=hidden;" vertex="1" parent="QCr_n_F1MeNNPdFUI7uE-20">
          <mxGeometry x="40" width="140" height="30" as="geometry" />
        </mxCell>
        <mxCell id="QCr_n_F1MeNNPdFUI7uE-23" value="" style="shape=partialRectangle;html=1;whiteSpace=wrap;collapsible=0;dropTarget=0;pointerEvents=0;fillColor=none;top=0;left=0;bottom=0;right=0;points=[[0,0.5],[1,0.5]];portConstraint=eastwest;" vertex="1" parent="QCr_n_F1MeNNPdFUI7uE-1">
          <mxGeometry y="240" width="180" height="30" as="geometry" />
        </mxCell>
        <mxCell id="QCr_n_F1MeNNPdFUI7uE-24" value="" style="shape=partialRectangle;html=1;whiteSpace=wrap;connectable=0;fillColor=none;top=0;left=0;bottom=0;right=0;overflow=hidden;" vertex="1" parent="QCr_n_F1MeNNPdFUI7uE-23">
          <mxGeometry width="40" height="30" as="geometry" />
        </mxCell>
        <mxCell id="QCr_n_F1MeNNPdFUI7uE-25" value="更新日(update_at)" style="shape=partialRectangle;html=1;whiteSpace=wrap;connectable=0;fillColor=none;top=0;left=0;bottom=0;right=0;align=left;spacingLeft=6;overflow=hidden;" vertex="1" parent="QCr_n_F1MeNNPdFUI7uE-23">
          <mxGeometry x="40" width="140" height="30" as="geometry" />
        </mxCell>
        <mxCell id="QCr_n_F1MeNNPdFUI7uE-26" value="紹介商品" style="shape=table;html=1;whiteSpace=wrap;startSize=30;container=1;collapsible=0;childLayout=tableLayout;fixedRows=1;rowLines=0;fontStyle=1;align=center;" vertex="1" parent="1">
          <mxGeometry x="420" y="110" width="180" height="240" as="geometry" />
        </mxCell>
        <mxCell id="QCr_n_F1MeNNPdFUI7uE-27" value="" style="shape=partialRectangle;html=1;whiteSpace=wrap;collapsible=0;dropTarget=0;pointerEvents=0;fillColor=none;top=0;left=0;bottom=1;right=0;points=[[0,0.5],[1,0.5]];portConstraint=eastwest;" vertex="1" parent="QCr_n_F1MeNNPdFUI7uE-26">
          <mxGeometry y="30" width="180" height="30" as="geometry" />
        </mxCell>
        <mxCell id="QCr_n_F1MeNNPdFUI7uE-28" value="PK" style="shape=partialRectangle;html=1;whiteSpace=wrap;connectable=0;fillColor=none;top=0;left=0;bottom=0;right=0;overflow=hidden;" vertex="1" parent="QCr_n_F1MeNNPdFUI7uE-27">
          <mxGeometry width="40" height="30" as="geometry" />
        </mxCell>
        <mxCell id="QCr_n_F1MeNNPdFUI7uE-29" value="Id" style="shape=partialRectangle;html=1;whiteSpace=wrap;connectable=0;fillColor=none;top=0;left=0;bottom=0;right=0;align=left;spacingLeft=6;overflow=hidden;" vertex="1" parent="QCr_n_F1MeNNPdFUI7uE-27">
          <mxGeometry x="40" width="140" height="30" as="geometry" />
        </mxCell>
        <mxCell id="QCr_n_F1MeNNPdFUI7uE-30" value="" style="shape=partialRectangle;html=1;whiteSpace=wrap;collapsible=0;dropTarget=0;pointerEvents=0;fillColor=none;top=0;left=0;bottom=0;right=0;points=[[0,0.5],[1,0.5]];portConstraint=eastwest;" vertex="1" parent="QCr_n_F1MeNNPdFUI7uE-26">
          <mxGeometry y="60" width="180" height="30" as="geometry" />
        </mxCell>
        <mxCell id="QCr_n_F1MeNNPdFUI7uE-31" value="FK" style="shape=partialRectangle;html=1;whiteSpace=wrap;connectable=0;fillColor=none;top=0;left=0;bottom=0;right=0;overflow=hidden;" vertex="1" parent="QCr_n_F1MeNNPdFUI7uE-30">
          <mxGeometry width="40" height="30" as="geometry" />
        </mxCell>
        <mxCell id="QCr_n_F1MeNNPdFUI7uE-32" value="会員id(customer_id)" style="shape=partialRectangle;html=1;whiteSpace=wrap;connectable=0;fillColor=none;top=0;left=0;bottom=0;right=0;align=left;spacingLeft=6;overflow=hidden;" vertex="1" parent="QCr_n_F1MeNNPdFUI7uE-30">
          <mxGeometry x="40" width="140" height="30" as="geometry" />
        </mxCell>
        <mxCell id="QCr_n_F1MeNNPdFUI7uE-33" value="" style="shape=partialRectangle;html=1;whiteSpace=wrap;collapsible=0;dropTarget=0;pointerEvents=0;fillColor=none;top=0;left=0;bottom=0;right=0;points=[[0,0.5],[1,0.5]];portConstraint=eastwest;" vertex="1" parent="QCr_n_F1MeNNPdFUI7uE-26">
          <mxGeometry y="90" width="180" height="30" as="geometry" />
        </mxCell>
        <mxCell id="QCr_n_F1MeNNPdFUI7uE-34" value="" style="shape=partialRectangle;html=1;whiteSpace=wrap;connectable=0;fillColor=none;top=0;left=0;bottom=0;right=0;overflow=hidden;" vertex="1" parent="QCr_n_F1MeNNPdFUI7uE-33">
          <mxGeometry width="40" height="30" as="geometry" />
        </mxCell>
        <mxCell id="QCr_n_F1MeNNPdFUI7uE-35" value="投稿タイトル(title)" style="shape=partialRectangle;html=1;whiteSpace=wrap;connectable=0;fillColor=none;top=0;left=0;bottom=0;right=0;align=left;spacingLeft=6;overflow=hidden;" vertex="1" parent="QCr_n_F1MeNNPdFUI7uE-33">
          <mxGeometry x="40" width="140" height="30" as="geometry" />
        </mxCell>
        <mxCell id="QCr_n_F1MeNNPdFUI7uE-36" value="" style="shape=partialRectangle;html=1;whiteSpace=wrap;collapsible=0;dropTarget=0;pointerEvents=0;fillColor=none;top=0;left=0;bottom=0;right=0;points=[[0,0.5],[1,0.5]];portConstraint=eastwest;" vertex="1" parent="QCr_n_F1MeNNPdFUI7uE-26">
          <mxGeometry y="120" width="180" height="30" as="geometry" />
        </mxCell>
        <mxCell id="QCr_n_F1MeNNPdFUI7uE-37" value="" style="shape=partialRectangle;html=1;whiteSpace=wrap;connectable=0;fillColor=none;top=0;left=0;bottom=0;right=0;overflow=hidden;" vertex="1" parent="QCr_n_F1MeNNPdFUI7uE-36">
          <mxGeometry width="40" height="30" as="geometry" />
        </mxCell>
        <mxCell id="QCr_n_F1MeNNPdFUI7uE-38" value="商品詳細(body)" style="shape=partialRectangle;html=1;whiteSpace=wrap;connectable=0;fillColor=none;top=0;left=0;bottom=0;right=0;align=left;spacingLeft=6;overflow=hidden;" vertex="1" parent="QCr_n_F1MeNNPdFUI7uE-36">
          <mxGeometry x="40" width="140" height="30" as="geometry" />
        </mxCell>
        <mxCell id="QCr_n_F1MeNNPdFUI7uE-39" value="" style="shape=partialRectangle;html=1;whiteSpace=wrap;collapsible=0;dropTarget=0;pointerEvents=0;fillColor=none;top=0;left=0;bottom=0;right=0;points=[[0,0.5],[1,0.5]];portConstraint=eastwest;" vertex="1" parent="QCr_n_F1MeNNPdFUI7uE-26">
          <mxGeometry y="150" width="180" height="30" as="geometry" />
        </mxCell>
        <mxCell id="QCr_n_F1MeNNPdFUI7uE-40" value="" style="shape=partialRectangle;html=1;whiteSpace=wrap;connectable=0;fillColor=none;top=0;left=0;bottom=0;right=0;overflow=hidden;" vertex="1" parent="QCr_n_F1MeNNPdFUI7uE-39">
          <mxGeometry width="40" height="30" as="geometry" />
        </mxCell>
        <mxCell id="QCr_n_F1MeNNPdFUI7uE-41" value="費用(cost)" style="shape=partialRectangle;html=1;whiteSpace=wrap;connectable=0;fillColor=none;top=0;left=0;bottom=0;right=0;align=left;spacingLeft=6;overflow=hidden;" vertex="1" parent="QCr_n_F1MeNNPdFUI7uE-39">
          <mxGeometry x="40" width="140" height="30" as="geometry" />
        </mxCell>
        <mxCell id="QCr_n_F1MeNNPdFUI7uE-42" value="" style="shape=partialRectangle;html=1;whiteSpace=wrap;collapsible=0;dropTarget=0;pointerEvents=0;fillColor=none;top=0;left=0;bottom=0;right=0;points=[[0,0.5],[1,0.5]];portConstraint=eastwest;" vertex="1" parent="QCr_n_F1MeNNPdFUI7uE-26">
          <mxGeometry y="180" width="180" height="30" as="geometry" />
        </mxCell>
        <mxCell id="QCr_n_F1MeNNPdFUI7uE-43" value="" style="shape=partialRectangle;html=1;whiteSpace=wrap;connectable=0;fillColor=none;top=0;left=0;bottom=0;right=0;overflow=hidden;" vertex="1" parent="QCr_n_F1MeNNPdFUI7uE-42">
          <mxGeometry width="40" height="30" as="geometry" />
        </mxCell>
        <mxCell id="QCr_n_F1MeNNPdFUI7uE-44" value="作成日(created-at)" style="shape=partialRectangle;html=1;whiteSpace=wrap;connectable=0;fillColor=none;top=0;left=0;bottom=0;right=0;align=left;spacingLeft=6;overflow=hidden;" vertex="1" parent="QCr_n_F1MeNNPdFUI7uE-42">
          <mxGeometry x="40" width="140" height="30" as="geometry" />
        </mxCell>
        <mxCell id="QCr_n_F1MeNNPdFUI7uE-45" value="" style="shape=partialRectangle;html=1;whiteSpace=wrap;collapsible=0;dropTarget=0;pointerEvents=0;fillColor=none;top=0;left=0;bottom=0;right=0;points=[[0,0.5],[1,0.5]];portConstraint=eastwest;" vertex="1" parent="QCr_n_F1MeNNPdFUI7uE-26">
          <mxGeometry y="210" width="180" height="30" as="geometry" />
        </mxCell>
        <mxCell id="QCr_n_F1MeNNPdFUI7uE-46" value="" style="shape=partialRectangle;html=1;whiteSpace=wrap;connectable=0;fillColor=none;top=0;left=0;bottom=0;right=0;overflow=hidden;" vertex="1" parent="QCr_n_F1MeNNPdFUI7uE-45">
          <mxGeometry width="40" height="30" as="geometry" />
        </mxCell>
        <mxCell id="QCr_n_F1MeNNPdFUI7uE-47" value="更新日(updated-at)" style="shape=partialRectangle;html=1;whiteSpace=wrap;connectable=0;fillColor=none;top=0;left=0;bottom=0;right=0;align=left;spacingLeft=6;overflow=hidden;" vertex="1" parent="QCr_n_F1MeNNPdFUI7uE-45">
          <mxGeometry x="40" width="140" height="30" as="geometry" />
        </mxCell>
        <mxCell id="QCr_n_F1MeNNPdFUI7uE-48" value="" style="endArrow=ERzeroToMany;html=1;exitX=1;exitY=0.5;exitDx=0;exitDy=0;edgeStyle=orthogonalEdgeStyle;startArrow=ERone;startFill=0;endFill=1;" edge="1" parent="1" source="QCr_n_F1MeNNPdFUI7uE-2" target="QCr_n_F1MeNNPdFUI7uE-30">
          <mxGeometry width="50" height="50" relative="1" as="geometry">
            <mxPoint x="390" y="300" as="sourcePoint" />
            <mxPoint x="416" y="185" as="targetPoint" />
            <Array as="points">
              <mxPoint x="330" y="125" />
              <mxPoint x="330" y="185" />
            </Array>
          </mxGeometry>
        </mxCell>
        <mxCell id="QCr_n_F1MeNNPdFUI7uE-49" value="管理者" style="shape=table;startSize=30;container=1;collapsible=1;childLayout=tableLayout;fixedRows=1;rowLines=0;fontStyle=1;align=center;resizeLast=1;shadow=0;" vertex="1" parent="1">
          <mxGeometry x="630" y="20" width="180" height="190" as="geometry" />
        </mxCell>
        <mxCell id="QCr_n_F1MeNNPdFUI7uE-50" value="" style="shape=partialRectangle;collapsible=0;dropTarget=0;pointerEvents=0;fillColor=none;top=0;left=0;bottom=1;right=0;points=[[0,0.5],[1,0.5]];portConstraint=eastwest;" vertex="1" parent="QCr_n_F1MeNNPdFUI7uE-49">
          <mxGeometry y="30" width="180" height="30" as="geometry" />
        </mxCell>
        <mxCell id="QCr_n_F1MeNNPdFUI7uE-51" value="PK" style="shape=partialRectangle;connectable=0;fillColor=none;top=0;left=0;bottom=0;right=0;fontStyle=1;overflow=hidden;" vertex="1" parent="QCr_n_F1MeNNPdFUI7uE-50">
          <mxGeometry width="30" height="30" as="geometry" />
        </mxCell>
        <mxCell id="QCr_n_F1MeNNPdFUI7uE-52" value="id" style="shape=partialRectangle;connectable=0;fillColor=none;top=0;left=0;bottom=0;right=0;align=left;spacingLeft=6;fontStyle=5;overflow=hidden;" vertex="1" parent="QCr_n_F1MeNNPdFUI7uE-50">
          <mxGeometry x="30" width="150" height="30" as="geometry" />
        </mxCell>
        <mxCell id="QCr_n_F1MeNNPdFUI7uE-53" value="" style="shape=partialRectangle;collapsible=0;dropTarget=0;pointerEvents=0;fillColor=none;top=0;left=0;bottom=0;right=0;points=[[0,0.5],[1,0.5]];portConstraint=eastwest;" vertex="1" parent="QCr_n_F1MeNNPdFUI7uE-49">
          <mxGeometry y="60" width="180" height="30" as="geometry" />
        </mxCell>
        <mxCell id="QCr_n_F1MeNNPdFUI7uE-54" value="" style="shape=partialRectangle;connectable=0;fillColor=none;top=0;left=0;bottom=0;right=0;editable=1;overflow=hidden;" vertex="1" parent="QCr_n_F1MeNNPdFUI7uE-53">
          <mxGeometry width="30" height="30" as="geometry" />
        </mxCell>
        <mxCell id="QCr_n_F1MeNNPdFUI7uE-55" value="メールアドレス" style="shape=partialRectangle;connectable=0;top=0;left=0;bottom=0;right=0;align=left;spacingLeft=6;overflow=hidden;strokeColor=#b85450;fontStyle=0;fillColor=none;" vertex="1" parent="QCr_n_F1MeNNPdFUI7uE-53">
          <mxGeometry x="30" width="150" height="30" as="geometry" />
        </mxCell>
        <mxCell id="QCr_n_F1MeNNPdFUI7uE-56" value="" style="shape=partialRectangle;collapsible=0;dropTarget=0;pointerEvents=0;fillColor=none;top=0;left=0;bottom=0;right=0;points=[[0,0.5],[1,0.5]];portConstraint=eastwest;" vertex="1" parent="QCr_n_F1MeNNPdFUI7uE-49">
          <mxGeometry y="90" width="180" height="30" as="geometry" />
        </mxCell>
        <mxCell id="QCr_n_F1MeNNPdFUI7uE-57" value="" style="shape=partialRectangle;connectable=0;fillColor=none;top=0;left=0;bottom=0;right=0;editable=1;overflow=hidden;" vertex="1" parent="QCr_n_F1MeNNPdFUI7uE-56">
          <mxGeometry width="30" height="30" as="geometry" />
        </mxCell>
        <mxCell id="QCr_n_F1MeNNPdFUI7uE-58" value="パスワード" style="shape=partialRectangle;connectable=0;top=0;left=0;bottom=0;right=0;align=left;spacingLeft=6;overflow=hidden;strokeColor=#b85450;fillColor=none;" vertex="1" parent="QCr_n_F1MeNNPdFUI7uE-56">
          <mxGeometry x="30" width="150" height="30" as="geometry" />
        </mxCell>
        <mxCell id="QCr_n_F1MeNNPdFUI7uE-59" value="" style="shape=partialRectangle;collapsible=0;dropTarget=0;pointerEvents=0;fillColor=none;top=0;left=0;bottom=0;right=0;points=[[0,0.5],[1,0.5]];portConstraint=eastwest;" vertex="1" parent="QCr_n_F1MeNNPdFUI7uE-49">
          <mxGeometry y="120" width="180" height="30" as="geometry" />
        </mxCell>
        <mxCell id="QCr_n_F1MeNNPdFUI7uE-60" value="" style="shape=partialRectangle;connectable=0;fillColor=none;top=0;left=0;bottom=0;right=0;editable=1;overflow=hidden;" vertex="1" parent="QCr_n_F1MeNNPdFUI7uE-59">
          <mxGeometry width="30" height="30" as="geometry" />
        </mxCell>
        <mxCell id="QCr_n_F1MeNNPdFUI7uE-61" value="登録日" style="shape=partialRectangle;connectable=0;fillColor=none;top=0;left=0;bottom=0;right=0;align=left;spacingLeft=6;overflow=hidden;" vertex="1" parent="QCr_n_F1MeNNPdFUI7uE-59">
          <mxGeometry x="30" width="150" height="30" as="geometry" />
        </mxCell>
        <mxCell id="QCr_n_F1MeNNPdFUI7uE-62" value="" style="shape=partialRectangle;collapsible=0;dropTarget=0;pointerEvents=0;fillColor=none;top=0;left=0;bottom=0;right=0;points=[[0,0.5],[1,0.5]];portConstraint=eastwest;" vertex="1" parent="QCr_n_F1MeNNPdFUI7uE-49">
          <mxGeometry y="150" width="180" height="30" as="geometry" />
        </mxCell>
        <mxCell id="QCr_n_F1MeNNPdFUI7uE-63" value="" style="shape=partialRectangle;connectable=0;fillColor=none;top=0;left=0;bottom=0;right=0;editable=1;overflow=hidden;" vertex="1" parent="QCr_n_F1MeNNPdFUI7uE-62">
          <mxGeometry width="30" height="30" as="geometry" />
        </mxCell>
        <mxCell id="QCr_n_F1MeNNPdFUI7uE-64" value="更新日" style="shape=partialRectangle;connectable=0;fillColor=none;top=0;left=0;bottom=0;right=0;align=left;spacingLeft=6;overflow=hidden;" vertex="1" parent="QCr_n_F1MeNNPdFUI7uE-62">
          <mxGeometry x="30" width="150" height="30" as="geometry" />
        </mxCell>
      </root>
    </mxGraphModel>
  </diagram>
</mxfile>
